<svg width="22" height="22" viewBox="0 0 22 22" fill="none" xmlns="http://www.w3.org/2000/svg">
<path d="M16.5 11.9167H5.5C4.95 11.9167 4.58334 11.55 4.58334 11C4.58334 10.45 4.95 10.0834 5.5 10.0834H16.5C17.05 10.0834 17.4167 10.45 17.4167 11C17.4167 11.55 17.05 11.9167 16.5 11.9167Z" fill="black"/>
<path d="M13.75 17.4167H8.25C7.7 17.4167 7.33334 17.05 7.33334 16.5C7.33334 15.95 7.7 15.5834 8.25 15.5834H13.75C14.3 15.5834 14.6667 15.95 14.6667 16.5C14.6667 17.05 14.3 17.4167 13.75 17.4167Z" fill="black"/>
<path d="M19.25 6.41671H2.75C2.2 6.41671 1.83334 6.05004 1.83334 5.50004C1.83334 4.95004 2.2 4.58337 2.75 4.58337H19.25C19.8 4.58337 20.1667 4.95004 20.1667 5.50004C20.1667 6.05004 19.8 6.41671 19.25 6.41671Z" fill="black"/>
</svg>
