<svg width="22" height="22" viewBox="0 0 22 22" fill="none" xmlns="http://www.w3.org/2000/svg">
<path d="M11.4193 2.9032C11.1722 2.71252 10.8278 2.71252 10.5807 2.9032L1.64389 9.77753C1.34277 10.0085 1.28604 10.4402 1.517 10.7416C1.74896 11.0424 2.18066 11.0988 2.48111 10.8679L11 4.31512L19.5189 10.8679C19.6438 10.9639 19.7908 11.0102 19.9372 11.0102C20.1433 11.0102 20.3474 10.9175 20.483 10.7416C20.714 10.4402 20.6572 10.0085 20.3561 9.77753L11.4193 2.9032Z" fill="#FAFAFA"/>
<path d="M13.0625 19.2398H17.8063C18.1844 19.2398 18.4938 18.9304 18.4938 18.5523V11.8148L11 6.05356L3.50623 11.8148V18.5523C3.50623 18.9304 3.81562 19.2398 4.19373 19.2398H8.9375C9.31562 19.2398 9.625 18.9304 9.625 18.5523V14.4273H12.375V18.5523C12.375 18.9304 12.6844 19.2398 13.0625 19.2398Z" fill="#FAFAFA"/>
</svg>
