<svg width="193" height="26" viewBox="0 0 193 26" fill="none" xmlns="http://www.w3.org/2000/svg">
<g clip-path="url(#clip0_16_625)">
<path d="M169.61 21.1044L169.122 20.121C170.905 19.2434 171.32 18.3976 171.32 16.2512V5.74121H172.543V16.2406C172.543 18.8417 171.631 20.2479 169.599 21.1044H169.61Z" fill="#333333"/>
<path d="M178.763 7.12616H178.743L177.105 12.3283H180.329L178.763 7.12616ZM181.905 17.3718L180.619 13.2693H176.804L175.57 17.1603H174.233L178.183 5.73047H179.448L183.128 17.0017L181.905 17.3612V17.3718Z" fill="#333333"/>
<path d="M189.213 17.372C186.528 17.372 184.444 15.5322 184.444 11.7152C184.444 7.63389 186.766 5.52979 189.69 5.52979C190.903 5.52979 191.639 5.69896 192.551 6.10075L192.064 7.24268C191.359 6.9149 190.654 6.67171 189.648 6.67171C187.585 6.67171 185.699 8.34231 185.699 11.2817C185.699 14.5806 186.87 16.2512 189.794 16.2512C190.664 16.2512 191.525 15.8917 192.178 15.6062L192.582 16.6319C191.628 17.1288 190.571 17.372 189.192 17.372H189.213Z" fill="#333333"/>
<path d="M157.097 26H156.06V16.6002L160.974 12.9524L156.06 9.31517V0H157.097V8.77593L162.736 12.9524L157.097 17.1395V26Z" fill="#333333"/>
<path d="M1.56537 17.002H0V9.42083C0 9.42083 1.03667 9.29395 2.13554 9.29395C4.44732 9.29395 5.86755 10.5205 5.86755 12.7092C5.86755 15.5005 4.22961 17.0125 1.56537 17.0125V17.002ZM1.95931 10.1927C1.44097 10.1927 1.03667 10.2138 1.03667 10.2138V16.0504H1.76234C3.53505 16.0504 4.77905 14.9719 4.77905 12.8572C4.77905 11.0597 3.58688 10.1927 1.95931 10.1927Z" fill="#333333"/>
<path d="M9.24707 17.0022V9.36816H12.9687V10.2669H10.2837V12.6142H12.7095V13.5024H10.2837V16.1034H13.0931V17.0022H9.24707Z" fill="#333333"/>
<path d="M17.9863 17.1397C17.2191 17.1397 16.5349 16.9705 15.944 16.7168L16.2654 15.7863C16.7526 16.0189 17.3228 16.2092 17.9033 16.2092C18.8156 16.2092 19.3961 15.8497 19.3961 15.0144C19.3961 14.3906 18.9504 14.084 18.3491 13.7985L17.1777 13.2275C16.3898 12.8469 15.8611 12.3499 15.8611 11.2715C15.8611 9.96035 16.9807 9.22021 18.2765 9.22021C18.9711 9.22021 19.4169 9.33652 20.07 9.56914L19.7175 10.4679C19.2717 10.2776 18.8882 10.0978 18.3387 10.0978C17.5716 10.0978 16.8667 10.415 16.8667 11.2292C16.8667 11.7896 17.1984 12.0327 17.6753 12.2654L18.8778 12.8786C19.8108 13.3438 20.381 13.8725 20.381 14.8453C20.381 16.1775 19.4687 17.1291 17.9655 17.1291L17.9863 17.1397Z" fill="#333333"/>
<path d="M23.6879 17.0022V9.36816H24.7349V17.0022H23.6879Z" fill="#333333"/>
<path d="M33.6296 10.5844C33.132 10.3729 32.624 10.1826 31.9502 10.1826C30.4574 10.1826 29.1926 11.1976 29.1926 13.0691C29.1926 15.1415 29.9805 16.1777 31.8569 16.1777C32.3545 16.1777 32.9039 16.0402 32.9039 16.0402V13.2594H33.9406V16.7486C33.9406 16.7486 33.0179 17.1399 31.3904 17.1399C29.5036 17.1399 28.1041 15.797 28.1041 13.3229C28.1041 10.6584 29.8561 9.23096 31.9813 9.23096C32.7899 9.23096 33.3704 9.35784 33.9924 9.63275L33.6296 10.5844Z" fill="#333333"/>
<path d="M41.954 17.1077L38.4086 10.9963H38.3982L38.4604 16.9914H37.486V9.35742H38.5641L42.0058 15.2574H42.0162L41.954 9.35742H42.9285V16.9174L41.9436 17.1077H41.954Z" fill="#333333"/>
<path d="M57.0583 17.2137L55.4515 15.9026C54.9331 16.6533 54.1453 17.1397 52.9738 17.1397C51.7298 17.1397 50.8798 16.4313 50.8798 15.2471C50.8798 14.2743 51.3774 13.7351 52.1238 13.0901C51.564 12.5297 51.2322 11.9693 51.2322 11.1869C51.2322 9.92863 52.0616 9.22021 53.1293 9.22021C54.0416 9.22021 54.6947 9.83347 54.6947 10.7957C54.6947 11.8318 54.2386 12.3182 53.3885 13.0161L55.2441 14.5492C55.4307 13.9994 55.4722 13.5765 55.5137 12.7623H57.5559V13.5659H56.229C56.2082 14.084 56.0631 14.6021 55.8972 15.0779L57.6077 16.4841L57.0479 17.2031L57.0583 17.2137ZM52.8391 13.7245C52.8391 13.7245 52.7147 13.6188 52.6939 13.6082C52.2378 13.9677 51.8128 14.4435 51.8128 15.0673C51.8128 15.818 52.3311 16.3361 53.1293 16.3361C53.9276 16.3361 54.4563 15.9343 54.8295 15.3951L52.8391 13.7245ZM53.0464 10.0132C52.4762 10.0132 52.103 10.3939 52.103 11.134C52.103 11.6521 52.2689 12.0433 52.8391 12.5931C53.5025 12.0645 53.855 11.6838 53.855 10.9225C53.855 10.4256 53.5647 10.0238 53.0464 10.0238V10.0132Z" fill="#333333"/>
<path d="M67.4354 10.2669V17.0022H66.3884V10.2669H64.2943V9.36816H69.5191V10.2669H67.4251H67.4354Z" fill="#333333"/>
<path d="M72.3906 17.0022V9.36816H76.1123V10.2669H73.4273V12.6142H75.8531V13.5024H73.4273V16.1034H76.2367V17.0022H72.3906Z" fill="#333333"/>
<path d="M82.1768 17.1397C80.3522 17.1397 78.9424 15.8815 78.9424 13.3438C78.9424 10.6476 80.5078 9.22021 82.5189 9.22021C83.3482 9.22021 83.8666 9.3471 84.4989 9.622L84.105 10.5525C83.6281 10.341 83.1824 10.1718 82.5085 10.1718C81.2023 10.1718 80.0102 11.1974 80.0102 13.0795C80.0102 15.173 80.7669 16.1987 82.5811 16.1987C83.1824 16.1987 83.7214 15.9555 84.1776 15.7546L84.53 16.6005C83.8355 16.9705 83.1305 17.1291 82.1768 17.1291V17.1397Z" fill="#333333"/>
<path d="M91.9941 17.0022V13.5024H88.6249V17.0022H87.5779V9.36816H88.6249V12.6142H91.9941V9.36816H93.0411V17.0022H91.9941Z" fill="#333333"/>
<path d="M101.303 17.1077L97.758 10.9963H97.7476L97.8098 16.9914H96.8353V9.35742H97.9135L101.355 15.2574H101.366L101.303 9.35742H102.278V16.9174L101.293 17.1077H101.303Z" fill="#333333"/>
<path d="M109.089 17.1399C106.539 17.1399 105.668 15.2155 105.668 13.1854C105.668 11.1553 106.58 9.23096 109.089 9.23096C111.598 9.23096 112.468 11.1447 112.468 13.1854C112.468 15.2261 111.587 17.1399 109.089 17.1399ZM109.089 10.1297C107.523 10.1297 106.787 11.3668 106.787 13.1854C106.787 15.004 107.492 16.2411 109.089 16.2411C110.685 16.2411 111.38 15.004 111.38 13.1854C111.38 11.3668 110.675 10.1297 109.089 10.1297Z" fill="#333333"/>
<path d="M115.838 17.0022V9.36816H116.885V16.1034H119.746V17.0022H115.838Z" fill="#333333"/>
<path d="M125.178 17.1399C122.628 17.1399 121.757 15.2155 121.757 13.1854C121.757 11.1553 122.669 9.23096 125.178 9.23096C127.687 9.23096 128.558 11.1447 128.558 13.1854C128.558 15.2261 127.676 17.1399 125.178 17.1399ZM125.178 10.1297C123.613 10.1297 122.877 11.3668 122.877 13.1854C122.877 15.004 123.582 16.2411 125.178 16.2411C126.774 16.2411 127.469 15.004 127.469 13.1854C127.469 11.3668 126.764 10.1297 125.178 10.1297Z" fill="#333333"/>
<path d="M137.037 10.5844C136.54 10.3729 136.032 10.1826 135.358 10.1826C133.865 10.1826 132.6 11.1976 132.6 13.0691C132.6 15.1415 133.388 16.1777 135.265 16.1777C135.762 16.1777 136.312 16.0402 136.312 16.0402V13.2594H137.348V16.7486C137.348 16.7486 136.426 17.1399 134.798 17.1399C132.911 17.1399 131.512 15.797 131.512 13.3229C131.512 10.6584 133.264 9.23096 135.389 9.23096C136.198 9.23096 136.778 9.35784 137.4 9.63275L137.037 10.5844Z" fill="#333333"/>
<path d="M143.206 13.7773V17.0022H142.159V13.8407L139.919 9.56908L140.852 9.125L142.687 12.7623H142.698L144.46 9.36819H145.559L143.195 13.7773H143.206Z" fill="#333333"/>
</g>
<defs>
<clipPath id="clip0_16_625">
<rect width="192.593" height="26" fill="white"/>
</clipPath>
</defs>
</svg>
