<svg width="22" height="22" viewBox="0 0 22 22" fill="none" xmlns="http://www.w3.org/2000/svg">
<g clip-path="url(#clip0_5_7)">
<path d="M0.503329 7.01926L10.7176 10.9478C10.8089 10.9824 10.9041 11 11 11C11.0959 11 11.191 10.9824 11.2824 10.9478L21.4967 7.01926C21.7997 6.90262 22 6.61105 22 6.28572C22 5.9604 21.7997 5.66882 21.4967 5.55218L11.2824 1.62361C11.0998 1.55454 10.9003 1.55454 10.7177 1.62361L0.503368 5.55218C0.200279 5.66882 0 5.9604 0 6.28572C0 6.61105 0.200279 6.90262 0.503329 7.01926ZM11 3.19888L19.0252 6.28572L11 9.37256L2.97483 6.28572L11 3.19888Z" fill="#FAFAFA"/>
<path d="M21.4967 14.9807L19.2447 14.1144L17.0555 14.9569L19.0252 15.7143L11 18.8011L2.97483 15.7143L4.9445 14.957L2.75538 14.1145L0.503368 14.9808C0.200279 15.0974 0 15.3889 0 15.7143C0 16.0396 0.200279 16.3312 0.503329 16.4478L10.7176 20.3764C10.8089 20.4109 10.9041 20.4286 11 20.4286C11.0959 20.4286 11.191 20.4109 11.2824 20.3764L21.4967 16.4478C21.7997 16.3312 22 16.0396 22 15.7143C22 15.3889 21.7997 15.0974 21.4967 14.9807Z" fill="#FAFAFA"/>
<path d="M21.4967 10.2665L19.2447 9.40018L17.0555 10.2427L19.0252 11L11 14.0868L2.97483 11L4.9445 10.2427L2.75538 9.40022L0.503368 10.2665C0.200279 10.3831 0 10.6747 0 11C0 11.3253 0.200279 11.6169 0.503329 11.7336L10.7176 15.6621C10.8089 15.6967 10.9041 15.7143 11 15.7143C11.0959 15.7143 11.191 15.6967 11.2824 15.6621L21.4967 11.7336C21.7997 11.6169 22 11.3253 22 11C22 10.6747 21.7997 10.3831 21.4967 10.2665Z" fill="#FAFAFA"/>
</g>
<defs>
<clipPath id="clip0_5_7">
<rect width="22" height="22" fill="white"/>
</clipPath>
</defs>
</svg>
