<svg width="22" height="22" viewBox="0 0 22 22" fill="none" xmlns="http://www.w3.org/2000/svg">
<g clip-path="url(#clip0_5_5)">
<path d="M10.1406 14.8663V11.8585H7.13281C6.65814 11.8585 6.27344 11.4738 6.27344 10.9992C6.27344 10.5247 6.65814 10.1398 7.13281 10.1398H10.1406V7.13197C10.1406 6.65747 10.5253 6.2726 11 6.2726C11.4747 6.2726 11.8594 6.65747 11.8594 7.13197V10.1398H14.8672C15.3419 10.1398 15.7266 10.5247 15.7266 10.9992C15.7266 11.4738 15.3419 11.8585 14.8672 11.8585H11.8594V14.8663C11.8594 15.341 11.4747 15.7257 11 15.7257C10.5253 15.7257 10.1406 15.341 10.1406 14.8663ZM18.7782 3.22182C16.7006 1.14421 13.9382 0 11 0C8.06184 0 5.29942 1.14421 3.22182 3.22182C1.14421 5.29942 0 8.06184 0 11C0 13.9382 1.14421 16.7006 3.22182 18.7782C5.29942 20.8558 8.06184 22 11 22C13.0115 22 14.9796 21.4518 16.6917 20.4147C17.0977 20.1688 17.2274 19.6404 16.9816 19.2346C16.7357 18.8285 16.2071 18.6988 15.8013 18.9447C14.3578 19.819 12.6974 20.2812 11 20.2812C5.88235 20.2812 1.71875 16.1176 1.71875 11C1.71875 5.88235 5.88235 1.71875 11 1.71875C16.1176 1.71875 20.2812 5.88235 20.2812 11C20.2812 12.83 19.7371 14.6112 18.7075 16.1514C18.4437 16.5458 18.5497 17.0796 18.9444 17.3434C19.3388 17.6071 19.8725 17.501 20.1364 17.1066C21.3555 15.2829 22 13.1713 22 11C22 8.06184 20.8558 5.29942 18.7782 3.22182Z" fill="#FAFAFA"/>
</g>
<defs>
<clipPath id="clip0_5_5">
<rect width="22" height="22" fill="white"/>
</clipPath>
</defs>
</svg>
