<svg width="42" height="19" viewBox="0 0 42 19" fill="none" xmlns="http://www.w3.org/2000/svg">
<path fill-rule="evenodd" clip-rule="evenodd" d="M22.6956 3.91495L21 0L19.3369 3.84042C19.2776 4.01781 19.1656 4.17419 19.0149 4.28989C18.8642 4.40559 18.6816 4.47542 18.4901 4.49059L14.1366 4.84545L17.3983 7.57846C17.5479 7.68869 17.6615 7.8386 17.7252 8.01009C17.789 8.18159 17.8002 8.36732 17.7576 8.54487L16.7584 12.6788L20.4837 10.4892C20.6361 10.396 20.8122 10.3459 20.9923 10.3444C21.1724 10.3428 21.3494 10.3901 21.5034 10.4807L25.2418 12.6788L24.2427 8.54487H24.2445C24.2043 8.37745 24.212 8.20254 24.2667 8.03905C24.3214 7.87555 24.4212 7.72967 24.5551 7.61715L27.8637 4.84545L23.5102 4.49059V4.48828C23.3334 4.47406 23.164 4.41311 23.0204 4.31205C22.8768 4.21099 22.7645 4.0736 22.6956 3.91495ZM36.832 9.49298L35.1361 5.57811L33.4724 9.41909C33.4135 9.5966 33.3017 9.75315 33.151 9.86888C33.0004 9.98462 32.8177 10.0543 32.6262 10.0692L28.2726 10.4247L31.5345 13.1573C31.6842 13.2676 31.7977 13.4176 31.8614 13.5892C31.9252 13.7608 31.9364 13.9466 31.8937 14.1243L30.8946 18.2569L34.6193 16.0674C34.772 15.9745 34.9482 15.9246 35.1283 15.9232C35.3085 15.9218 35.4855 15.9689 35.6396 16.0594L39.3784 18.2569L38.3798 14.1241L38.3809 14.1229C38.3409 13.9557 38.3486 13.781 38.4033 13.6177C38.4581 13.4544 38.5577 13.3087 38.6915 13.1964L42 10.4247L37.6465 10.0692V10.0664C37.4697 10.0524 37.3002 9.99148 37.1566 9.8904C37.013 9.78931 36.9007 9.6519 36.8319 9.49314L36.832 9.49298ZM8.55906 9.49298L6.86372 5.57811L5.20004 9.41909C5.14105 9.59663 5.0291 9.75317 4.87837 9.8689C4.72763 9.98463 4.5449 10.0543 4.35332 10.0692L0 10.4247L3.26156 13.1573C3.41121 13.2676 3.52472 13.4176 3.58836 13.5892C3.65201 13.7608 3.66307 13.9467 3.6202 14.1243L2.62164 18.2569L6.34692 16.0674C6.49923 15.9745 6.67515 15.9246 6.85501 15.9232C7.03487 15.9218 7.21159 15.9689 7.36542 16.0594L11.1054 18.2569L10.1062 14.1241L10.1081 14.1229C10.0679 13.9557 10.0757 13.781 10.1304 13.6177C10.1851 13.4544 10.2848 13.3087 10.4186 13.1964L13.7273 10.4247L9.37379 10.0692V10.0664C9.19695 10.0523 9.02748 9.99138 8.88384 9.89027C8.7402 9.78916 8.62781 9.65174 8.55906 9.49298Z" fill="#FAFAFA"/>
</svg>
